<?xml version="1.0" encoding="utf-8"?>
<!-- Generator: Adobe Illustrator 26.1.0, SVG Export Plug-In . SVG Version: 6.00 Build 0)  -->
<svg version="1.1" id="Слой_1" xmlns="http://www.w3.org/2000/svg" xmlns:xlink="http://www.w3.org/1999/xlink" x="0px" y="0px"
	 viewBox="0 0 32 32" style="enable-background:new 0 0 32 32;" xml:space="preserve">
<style type="text/css">
	.st0{fill:#A7A7A7;}
</style>
<g>
	<path class="st0" d="M7.6,18.6l14.4-10c0.5-0.4,1.1,0.1,0.9,0.7l-6.1,16.4c-0.2,0.6-1,0.6-1.2,0.1l-1.9-5.1
		c-0.1-0.2-0.3-0.3-0.5-0.4l-5.4-0.6C7.2,19.6,7.1,18.9,7.6,18.6z"/>
</g>
<g>
	<path class="st0" d="M16,32C7.2,32,0,24.8,0,16S7.2,0,16,0s16,7.2,16,16S24.8,32,16,32z M16,1C7.7,1,1,7.7,1,16c0,8.3,6.7,15,15,15
		c8.3,0,15-6.7,15-15C31,7.7,24.3,1,16,1z"/>
</g>
</svg>
